<svg xmlns="http://www.w3.org/2000/svg" xmlns:xlink="http://www.w3.org/1999/xlink" viewBox="0,0,256,256" width="40px" height="40px" fill-rule="nonzero"><g fill="none" fill-rule="nonzero" stroke="none" stroke-width="1" stroke-linecap="butt" stroke-linejoin="miter" stroke-miterlimit="10" stroke-dasharray="" stroke-dashoffset="0" font-family="none" font-weight="none" font-size="none" text-anchor="none" style="mix-blend-mode: normal"><g transform="scale(6.4,6.4)"><path d="M12.951,35c-3.46,0 -6.843,-0.823 -9.897,-2.395c3.589,-0.042 6.973,-1.229 9.797,-3.442l1.106,-0.867l-1.406,-0.026c-2.85,-0.053 -5.379,-1.752 -6.524,-4.306c0.233,0.02 0.466,0.029 0.698,0.029c0.745,0 1.48,-0.098 2.187,-0.291l2.038,-0.557l-2.071,-0.416c-3.154,-0.633 -5.503,-3.28 -5.816,-6.435c0.94,0.398 1.956,0.624 2.979,0.657l1.748,0.056l-1.454,-0.972c-2.033,-1.356 -3.246,-3.627 -3.246,-6.071c0,-1.048 0.225,-2.081 0.654,-3.025c4.04,4.63 9.809,7.443 15.944,7.75l0.661,0.033l-0.148,-0.645c-0.125,-0.542 -0.188,-1.102 -0.188,-1.664c0,-4.023 3.273,-7.296 7.296,-7.296c2.011,0 3.952,0.84 5.326,2.304l0.189,0.202l0.272,-0.054c1.337,-0.263 2.628,-0.691 3.853,-1.279c-0.605,1.145 -1.486,2.079 -2.594,2.742l-0.398,0.238l0.365,0.73l0.364,-0.016c0.988,-0.121 1.94,-0.328 2.875,-0.628c-0.806,0.958 -1.725,1.811 -2.744,2.547l-0.218,0.157l0.011,0.27c0.014,0.327 0.021,0.657 0.021,0.987c0.001,10.659 -8.109,21.683 -21.68,21.683z" fill="#ffffff"></path><path d="M27.309,5.617c1.873,0 3.681,0.782 4.961,2.146l0.379,0.404l0.543,-0.107c0.806,-0.159 1.595,-0.376 2.364,-0.649c-0.422,0.464 -0.91,0.864 -1.459,1.192l-0.789,0.508l0.426,0.833l0.318,0.622l0.693,-0.085c0.425,-0.052 0.843,-0.119 1.255,-0.203c-0.464,0.437 -0.958,0.844 -1.478,1.22l-0.436,0.315l0.023,0.538c0.014,0.32 0.021,0.643 0.021,0.966c0,10.412 -7.923,21.182 -21.181,21.182c-2.727,0 -5.406,-0.524 -7.906,-1.533c2.959,-0.382 5.73,-1.542 8.115,-3.411l2.213,-1.735l-2.811,-0.052c-2.371,-0.044 -4.504,-1.311 -5.693,-3.277c0.74,-0.012 1.471,-0.115 2.176,-0.308l4.073,-1.114l-4.14,-0.831c-2.663,-0.534 -4.71,-2.61 -5.287,-5.182c0.756,0.235 1.543,0.37 2.335,0.395l3.495,0.113l-2.907,-1.943c-1.892,-1.265 -3.022,-3.38 -3.022,-5.657c0,-0.713 0.112,-1.418 0.328,-2.089c4.093,4.37 9.748,7.014 15.746,7.314l1.322,0.066l-0.297,-1.29c-0.116,-0.505 -0.176,-1.027 -0.176,-1.552c-0.001,-3.747 3.048,-6.796 6.796,-6.796M27.309,4.617c-4.305,0 -7.796,3.491 -7.796,7.796c0,0.611 0.07,1.206 0.201,1.776c-6.48,-0.324 -12.224,-3.429 -16.07,-8.145c-0.67,1.151 -1.054,2.49 -1.054,3.92c0,2.704 1.376,5.09 3.467,6.488c-1.278,-0.041 -2.479,-0.391 -3.531,-0.975c0,0.033 0,0.065 0,0.098c0,3.778 2.687,6.929 6.254,7.644c-0.654,0.179 -1.343,0.274 -2.055,0.274c-0.502,0 -0.991,-0.049 -1.466,-0.139c0.993,3.097 3.871,5.352 7.283,5.415c-2.668,2.092 -6.029,3.338 -9.682,3.338c-0.629,0 -1.249,-0.036 -1.86,-0.109c3.45,2.212 7.548,3.502 11.951,3.502c14.34,0 22.181,-11.88 22.181,-22.182c0,-0.337 -0.008,-0.674 -0.022,-1.009c1.523,-1.1 2.845,-2.473 3.89,-4.036c-1.385,0.615 -2.814,1.024 -4.375,1.215l-0.014,-0.027c1.61,-0.964 2.756,-2.453 3.339,-4.274c-1.506,0.893 -3.175,1.542 -4.951,1.892c-1.422,-1.515 -3.448,-2.462 -5.69,-2.462z" fill="#b4b7ba"></path></g></g></svg>